<svg width="246" height="268" viewBox="0 0 246 268" fill="none" xmlns="http://www.w3.org/2000/svg">
<path d="M131.846 178.472C134.777 177.737 134.654 176.43 133.279 175.606C121.098 167.007 122.531 153.393 122.531 149.81C120.381 153.393 115.366 170.59 111.318 181.375C113.625 179.395 125.253 180.127 131.846 178.472Z" fill="url(#paint0_linear_248_36)"/>
<path d="M156.21 207.802C145.462 209.235 130.414 210.001 108.917 204.985C116.8 204.985 118.453 202.769 121.099 198.536C128.264 187.071 136.68 179.495 142.596 183.439C149.475 188.025 153.344 196.337 156.21 207.802Z" fill="url(#paint1_linear_248_36)"/>
<path d="M104.617 236.383C103.184 220.749 105.334 207.851 105.334 207.851C125.397 210.587 128.98 212.867 144.028 212.15C112.499 225.765 117.515 229.348 104.617 236.383Z" fill="url(#paint2_linear_248_36)"/>
<path d="M156.209 210.668C139.729 215.684 124.681 224.332 118.232 231.497C128.264 230.064 155.493 237.23 153.343 253.71C160.509 237.897 158.359 221.416 156.209 210.668Z" fill="url(#paint3_linear_248_36)"/>
<path d="M106.051 202.835C108.201 194.953 109.634 186.354 111.067 184.205C112.5 182.055 126.831 183.488 135.43 179.905C135.43 179.905 125.398 187.787 122.532 191.37C120.207 194.275 118.551 197.063 116.799 199.252C113.933 202.835 108.678 201.88 106.051 202.835Z" fill="url(#paint4_linear_248_36)"/>
<path d="M138.078 136.286C155.03 132.485 171.974 159.793 157.642 187.022C154.478 182.592 152.627 175.866 144.744 171.257C128.264 161.621 124.154 139.407 138.078 136.286Z" fill="url(#paint5_linear_248_36)"/>
<path d="M2.70186 42.2489C23.5591 35.4828 48.4794 50.9708 55.8483 61.1106C63.2173 71.2503 59.2704 67.2825 70.5654 89.3047C59.8374 73.7067 -13.984 47.6618 2.70186 42.2489Z" fill="url(#paint6_linear_248_36)"/>
<path d="M242.842 191.873C222.005 198.701 197.039 183.286 189.641 173.168C182.242 163.05 186.2 167.006 174.841 145.018C185.614 160.584 259.512 186.412 242.842 191.873Z" fill="url(#paint7_linear_248_36)"/>
<path d="M206.65 0C206.65 0 221.247 33.5827 206.646 54.5078C192.045 75.4329 165.35 71.0017 156.261 80.5107C148.925 88.1863 141.068 100.368 143.416 111.833C145.763 123.298 156.262 125.447 164.874 130.646C171.868 134.868 169.173 141.929 177.771 155.543C170.635 147.309 160.519 136.622 146.18 132.423C136.148 130.646 123.251 132.424 111.848 151.96C94.6509 173.696 60.1129 217.883 59.5397 220.749C55.9569 215.017 34.3974 166.29 82.4068 144.077C92.4388 139.436 122.596 134.045 113.378 116.789C109.175 108.848 97.7762 109.971 86.7682 105.384C72.4374 99.6514 78.1042 95.3511 68.8551 80.3037C77.3877 88.9022 102.199 102.216 113.525 102.513C131.132 101.084 134.775 96.0417 143.416 77.6807C152.057 59.3194 200.661 12.3103 206.65 0ZM128.983 106.816C123.443 106.816 118.952 111.308 118.952 116.849C118.952 122.389 123.443 126.88 128.983 126.88C134.523 126.88 139.015 122.389 139.015 116.849C139.015 111.308 134.523 106.816 128.983 106.816Z" fill="url(#paint8_linear_248_36)"/>
<path d="M206.65 0C206.65 0 221.248 33.5827 206.647 54.5078C192.046 75.4329 165.352 71.0018 156.263 80.5107C150.455 86.5865 144.322 95.4859 143.182 104.618L129.209 98.415C134.864 94.8868 138.245 88.6688 143.416 77.6807C152.057 59.3195 200.661 12.3103 206.65 0Z" fill="url(#paint9_linear_248_36)"/>
<circle cx="128.981" cy="116.848" r="7.16556" fill="#C8553D"/>
<path d="M152.92 93.2021C147.35 94.9774 146.585 106.452 146.508 110.065C146.746 112.202 147.382 117.899 152.92 115.839C160.508 113.016 163.374 112.549 168.39 112.549C178.422 112.549 184.871 113.217 194.903 118.998C186.112 104.838 159.883 90.9829 152.92 93.2021Z" fill="url(#paint10_linear_248_36)"/>
<path d="M103.185 114.416C108.201 114.416 111.784 116.566 111.784 123.731C111.784 126.598 106.444 133.508 100.906 131.447C93.3182 128.625 90.452 128.158 85.4361 128.158C75.4043 128.158 60.9083 133.28 58.9234 134.607C67.714 120.447 95.8775 114.416 103.185 114.416Z" fill="url(#paint11_linear_248_36)"/>
<path d="M110.395 97.6377C106.378 94.3824 105.38 86.3416 96.0642 82.0423C109.679 77.5742 131.892 89.0989 130.36 92.017C128.828 94.9351 114.888 101.277 110.395 97.6377Z" fill="url(#paint12_linear_248_36)"/>
<path d="M105.334 238.663C106.289 237.947 110.292 234.364 121.814 234.364C128.142 234.364 136.146 236.594 142.595 240.096C149.044 243.599 151.91 252.278 151.91 255.86C148.327 260.16 140.445 269.475 126.114 266.609C119.665 265.176 108.773 254.141 105.334 238.663Z" fill="url(#paint13_linear_248_36)"/>
<path d="M143.5 77.397C148.686 83.4478 147.87 91.4502 147.863 91.5159C144.313 97.7411 142.119 104.804 143.516 111.612C145.874 123.097 156.393 125.245 165.023 130.449C172.032 134.676 169.336 141.751 177.957 155.386C170.741 147.733 160.69 136.247 146.333 132.657C136.282 130.882 122.642 133.375 111.91 151.828C111.903 151.796 108.555 133.654 111.899 130.152C115.246 126.646 116.455 122.256 113.426 116.592C109.003 108.967 97.7792 109.968 86.7484 105.378C72.3879 99.6414 78.0752 95.132 68.8016 80.061C77.3542 88.6714 102.219 101.998 113.566 102.289C131.205 100.85 134.852 95.7958 143.5 77.397ZM129.054 106.593C123.503 106.596 119.006 111.098 119.009 116.648C119.011 122.199 123.513 126.696 129.063 126.694C134.614 126.691 139.112 122.189 139.109 116.638C139.106 111.088 134.604 106.591 129.054 106.593Z" fill="url(#paint14_linear_248_36)"/>
<path d="M208.071 70.2016C213.884 66.3728 223.864 53.6902 222.157 30C226.736 43.6398 230.325 61.5869 208.071 70.2016Z" fill="url(#paint15_linear_248_36)"/>
<path d="M44.5019 201.626C40.8308 195.711 37.0911 180.012 48.5781 159.223C38.7002 169.684 27.9136 184.47 44.5019 201.626Z" fill="url(#paint16_linear_248_36)"/>
<path d="M14.5486 31.3695C26.7526 32.0874 34.6494 33.5232 44.6998 41.4199C40.3924 36.3949 35.3672 26.3445 14.5486 31.3695Z" fill="url(#paint17_linear_248_36)"/>
<path d="M201.713 194.544C211.912 201.284 219.094 204.868 231.872 204.571C225.412 206.012 215.365 211.045 201.713 194.544Z" fill="url(#paint18_linear_248_36)"/>
<defs>
<linearGradient id="paint0_linear_248_36" x1="121.975" y1="150.51" x2="145.591" y2="181.666" gradientUnits="userSpaceOnUse">
<stop stop-color="#C8553D"/>
<stop offset="0.525267" stop-color="#E33B17"/>
<stop offset="0.761714" stop-color="#982108"/>
<stop offset="1" stop-color="#EB320C"/>
</linearGradient>
<linearGradient id="paint1_linear_248_36" x1="119.666" y1="209.235" x2="169.91" y2="206.599" gradientUnits="userSpaceOnUse">
<stop stop-color="#C8553D"/>
<stop offset="0.463165" stop-color="#E33B17"/>
<stop offset="0.761714" stop-color="#982108"/>
<stop offset="1" stop-color="#EB320C"/>
</linearGradient>
<linearGradient id="paint2_linear_248_36" x1="111.066" y1="218.55" x2="166.38" y2="224.202" gradientUnits="userSpaceOnUse">
<stop stop-color="#C8553D"/>
<stop offset="0.525267" stop-color="#E33B17"/>
<stop offset="0.761714" stop-color="#982108"/>
<stop offset="1" stop-color="#EB320C"/>
</linearGradient>
<linearGradient id="paint3_linear_248_36" x1="121.815" y1="235.747" x2="178.276" y2="219.335" gradientUnits="userSpaceOnUse">
<stop stop-color="#C8553D"/>
<stop offset="0.403381" stop-color="#E33B17"/>
<stop offset="0.790836" stop-color="#982108"/>
<stop offset="1" stop-color="#EB320C"/>
</linearGradient>
<linearGradient id="paint4_linear_248_36" x1="111.783" y1="192.038" x2="156.949" y2="191.325" gradientUnits="userSpaceOnUse">
<stop stop-color="#C8553D"/>
<stop offset="0.525267" stop-color="#E33B17"/>
<stop offset="0.761714" stop-color="#982108"/>
<stop offset="1" stop-color="#EB320C"/>
</linearGradient>
<linearGradient id="paint5_linear_248_36" x1="131.846" y1="155.493" x2="168.398" y2="141.394" gradientUnits="userSpaceOnUse">
<stop stop-color="#C8553D"/>
<stop offset="0.490999" stop-color="#E33B17"/>
<stop offset="0.761714" stop-color="#982108"/>
<stop offset="1" stop-color="#EB320C"/>
</linearGradient>
<linearGradient id="paint6_linear_248_36" x1="60.638" y1="6.34038" x2="23.2472" y2="82.6278" gradientUnits="userSpaceOnUse">
<stop offset="0.655127" stop-color="#6B8E23"/>
<stop offset="0.843453" stop-color="#1E280A"/>
</linearGradient>
<linearGradient id="paint7_linear_248_36" x1="185.012" y1="227.952" x2="222.178" y2="151.555" gradientUnits="userSpaceOnUse">
<stop offset="0.655127" stop-color="#6B8E23"/>
<stop offset="0.843453" stop-color="#1E280A"/>
</linearGradient>
<linearGradient id="paint8_linear_248_36" x1="-130.076" y1="139.579" x2="63.5349" y2="307.644" gradientUnits="userSpaceOnUse">
<stop offset="0.673113" stop-color="#6B8E23"/>
<stop offset="0.811834" stop-color="#1E280A"/>
</linearGradient>
<linearGradient id="paint9_linear_248_36" x1="265.125" y1="91.2639" x2="165.275" y2="-1.8817" gradientUnits="userSpaceOnUse">
<stop offset="0.655127" stop-color="#6B8E23"/>
<stop offset="0.843453" stop-color="#1E280A"/>
</linearGradient>
<linearGradient id="paint10_linear_248_36" x1="162.042" y1="92.7965" x2="183.471" y2="133.052" gradientUnits="userSpaceOnUse">
<stop stop-color="#C8553D"/>
<stop offset="0.525267" stop-color="#E33B17"/>
<stop offset="0.761714" stop-color="#982108"/>
<stop offset="1" stop-color="#EB320C"/>
</linearGradient>
<linearGradient id="paint11_linear_248_36" x1="43.7109" y1="135.43" x2="104.796" y2="98.7352" gradientUnits="userSpaceOnUse">
<stop stop-color="#C8553D"/>
<stop offset="0.694401" stop-color="#E33B17"/>
<stop offset="0.821768" stop-color="#BF2E10"/>
<stop offset="0.974314" stop-color="#982108"/>
<stop offset="1" stop-color="#EB320C"/>
</linearGradient>
<linearGradient id="paint12_linear_248_36" x1="108.222" y1="80.7716" x2="120.648" y2="106.924" gradientUnits="userSpaceOnUse">
<stop stop-color="#C8553D"/>
<stop offset="0.525267" stop-color="#E33B17"/>
<stop offset="0.761714" stop-color="#982108"/>
<stop offset="1" stop-color="#EB320C"/>
</linearGradient>
<linearGradient id="paint13_linear_248_36" x1="111.066" y1="248.646" x2="163.549" y2="278.321" gradientUnits="userSpaceOnUse">
<stop stop-color="#C8553D"/>
<stop offset="0.316716" stop-color="#DF3E1D"/>
<stop offset="0.502321" stop-color="#E33B17"/>
<stop offset="0.717415" stop-color="#982108"/>
<stop offset="1" stop-color="#EB320C"/>
</linearGradient>
<linearGradient id="paint14_linear_248_36" x1="109.001" y1="79.1983" x2="155.509" y2="184.716" gradientUnits="userSpaceOnUse">
<stop stop-color="#C8553D"/>
<stop offset="0.525267" stop-color="#E33B17"/>
<stop offset="0.761714" stop-color="#982108"/>
<stop offset="1" stop-color="#EB320C"/>
</linearGradient>
<linearGradient id="paint15_linear_248_36" x1="214.524" y1="30.9198" x2="245.141" y2="52.586" gradientUnits="userSpaceOnUse">
<stop stop-color="#C8553D"/>
<stop offset="0.525267" stop-color="#E33B17"/>
<stop offset="0.761714" stop-color="#982108"/>
<stop offset="1" stop-color="#EB320C"/>
</linearGradient>
<linearGradient id="paint16_linear_248_36" x1="55.1211" y1="163.26" x2="18.2399" y2="170.085" gradientUnits="userSpaceOnUse">
<stop stop-color="#C8553D"/>
<stop offset="0.525267" stop-color="#E33B17"/>
<stop offset="0.761714" stop-color="#982108"/>
<stop offset="1" stop-color="#EB320C"/>
</linearGradient>
<linearGradient id="paint17_linear_248_36" x1="25.6563" y1="30.2613" x2="29.7361" y2="47.7545" gradientUnits="userSpaceOnUse">
<stop stop-color="#C8553D"/>
<stop offset="0.525267" stop-color="#E33B17"/>
<stop offset="0.761714" stop-color="#982108"/>
<stop offset="1" stop-color="#EB320C"/>
</linearGradient>
<linearGradient id="paint18_linear_248_36" x1="209.94" y1="202.089" x2="223.691" y2="190.531" gradientUnits="userSpaceOnUse">
<stop stop-color="#C8553D"/>
<stop offset="0.525267" stop-color="#E33B17"/>
<stop offset="0.761714" stop-color="#982108"/>
<stop offset="1" stop-color="#EB320C"/>
</linearGradient>
</defs>
</svg>
